<svg xmlns="http://www.w3.org/2000/svg" viewBox="0 0 538.58 538.58"><path d="M-16.03-11.98H554.6v562.55H-16.03z" fill="#091a34"/><path d="M315.75 389a6.52 6.52 0 0 0-6.3-.4l-40.16 18.88-40.16-18.88a6.55 6.55 0 0 0-9.34 5.93v47.88a6.56 6.56 0 0 0 3 5.54 6.64 6.64 0 0 0 3.52 1 6.48 6.48 0 0 0 2.78-.63l40.16-18.87 40.16 18.87a6.48 6.48 0 0 0 2.78.63 6.64 6.64 0 0 0 3.52-1 6.56 6.56 0 0 0 3-5.54v-47.92a6.56 6.56 0 0 0-2.96-5.49zm12.3-222.18h-50.8v-31.34a23.66 23.66 0 1 0-16 0v31.34H210.5A89.14 89.14 0 0 0 121.38 256v24.43a89.13 89.13 0 0 0 89.14 89.13h117.54a89.13 89.13 0 0 0 89.14-89.13V256a89.14 89.14 0 0 0-89.14-89.18zm49.87 114.6A45 45 0 0 1 333 326.34H205.57a45 45 0 0 1-44.92-44.93v-26.48A45 45 0 0 1 205.57 210H333a45 45 0 0 1 44.93 44.93zm-139.34-13.24a19.2 19.2 0 1 1-19.2-19.2 19.19 19.19 0 0 1 19.2 19.2zm61.42 0A19.2 19.2 0 1 0 319.2 249a19.2 19.2 0 0 0-19.2 19.18z" fill="#fff"/></svg>